<?xml version="1.0" encoding="utf-8"?><!-- Uploaded to: SVG Repo, www.svgrepo.com, Generator: SVG Repo Mixer Tools -->
                        <svg class="logo" viewBox="0 0 512 512" xmlns="http://www.w3.org/2000/svg">
                            <defs>
                                <linearGradient id="grad" x1="0%" y1="0%" x2="100%" y2="0%">
                                  <stop offset="0%" style="stop-color:rgba(21,98,156,1);stop-opacity:1" />
                                  <stop offset="50%" style="stop-color:rgba(2,132,132,1);stop-opacity:1" />
                                  <stop offset="100%" style="stop-color:rgba(21,98,156,1);stop-opacity:1" />
                                </linearGradient>
                              </defs>
                            <path d="M209.094 19.53L150.53 35.22l234.19 234.186 11.436 11.47-15.625 4.187-182.25 48.78L184 387.032l307.78-82.467.408-1.5L209.094 19.53zm-77.75 22.94L25.78 436.31l45.376 45.375 87.375-326.062 4.19-15.656 11.436 11.468 133.688 133.718 52.22-13.97L131.343 42.47zm41.062 133.655L87.53 492.845l381.126-102.126 17.53-65.314L173.22 409.28l-15.657 4.19 4.218-15.658 49.126-183.156-38.5-38.53z" fill="url(#grad)"/>
                        </svg>