<?xml version="1.0" encoding="utf-8"?>
<!-- Generator: Adobe Illustrator 15.0.2, SVG Export Plug-In . SVG Version: 6.00 Build 0)  -->
<!DOCTYPE svg PUBLIC "-//W3C//DTD SVG 1.1//EN" "http://www.w3.org/Graphics/SVG/1.1/DTD/svg11.dtd">
<svg version="1.1" id="Layer_1" xmlns="http://www.w3.org/2000/svg" xmlns:xlink="http://www.w3.org/1999/xlink" x="0px" y="0px"
	 width="200px" height="34.411px" viewBox="0 0 200 34.411" enable-background="new 0 0 200 34.411" xml:space="preserve">
<g>
	<path fill="#FFFFFF" d="M20.995,16.76c0.791-0.701,1.433-1.581,1.798-2.581c0.561-1.548,0.555-3.283,0.027-4.839
		c-0.508-1.507-1.574-2.797-2.926-3.629c-1.162-0.735-2.515-1.142-3.885-1.264c-0.021-1.472,0.02-2.959-0.015-4.439
		c-0.899-0.014-1.804-0.007-2.71,0c-0.014,1.468-0.006,2.933,0,4.406c-0.905,0.021-1.805,0.007-2.703,0.007
		c-0.013-1.474-0.007-2.939,0-4.405c-0.904-0.021-1.811-0.008-2.71-0.008c-0.013,1.468-0.013,2.933,0,4.399
		C7.521,4.436,7.163,4.421,6.811,4.421H0.008v5.507c1.709-0.007,3.411-0.014,5.121,0c0.008,4.872,0.008,9.753,0,14.624
		c-1.71,0.008-3.42,0-5.129,0.008c0.014,1.831,0.008,3.669,0.008,5.506c2.174-0.014,4.357-0.006,6.533-0.006
		c0.446,0.006,0.887-0.021,1.331,0.013c-0.013,1.447-0.013,2.893,0,4.339h2.703c0-1.446-0.006-2.899,0.007-4.346
		c0.898-0.006,1.805-0.021,2.703,0.007c-0.014,1.447-0.006,2.893,0,4.339h2.71c0.034-1.453-0.007-2.913,0.021-4.366
		c1.764,0,3.541-0.5,5-1.5c1.439-0.979,2.508-2.485,2.899-4.188c0.345-1.507,0.284-3.129-0.323-4.569
		C23.07,18.537,22.131,17.489,20.995,16.76 M10.988,9.928c1.398-0.014,2.797-0.007,4.203-0.007c0.669-0.007,1.351,0.298,1.742,0.852
		c0.312,0.419,0.439,0.954,0.412,1.474c0.015,0.662-0.289,1.338-0.816,1.743c-0.338,0.278-0.777,0.419-1.21,0.453
		c-1.439,0.014-2.878-0.006-4.318,0.014c-0.013-0.148-0.021-0.305-0.021-0.453C10.988,12.646,10.975,11.286,10.988,9.928
		 M17.367,24.085c-0.426,0.324-0.966,0.475-1.5,0.475c-1.629-0.008-3.251,0-4.879-0.008c-0.014-1.629-0.014-3.258,0-4.886
		c1.425-0.014,2.845,0,4.271-0.007c0.465,0.007,0.951-0.041,1.404,0.114c0.662,0.196,1.216,0.724,1.446,1.373
		C18.469,22.152,18.245,23.423,17.367,24.085"/>
	<path fill="#FFFFFF" d="M185.577,18.828c0.581-0.857,0.635-2.048,0.128-2.96c-0.284-0.541-0.784-0.926-1.196-1.365
		c-0.926-0.898-1.804-1.852-2.744-2.73c-0.364,0.285-0.661,0.643-0.992,0.967c-1.008,1.014-2.021,2.027-3.034,3.034
		c0.452,0.514,0.973,0.966,1.433,1.467c-2.278,2.29-4.555,4.581-6.839,6.859c-1.027,1.013-2.021,2.067-3.068,3.054
		c-0.27-0.196-0.473-0.46-0.709-0.682c-3.068-3.076-6.136-6.144-9.197-9.226c0.879-0.919,1.791-1.797,2.676-2.695
		c2.244-2.265,4.501-4.515,6.751-6.771c0.155-0.147,0.284-0.351,0.479-0.453c0.487,0.426,0.918,0.919,1.393,1.365
		c0.061,0.081,0.135-0.034,0.183-0.074c1.276-1.291,2.561-2.567,3.838-3.857c0.081-0.062-0.014-0.122-0.047-0.169
		c-1.149-1.15-2.291-2.312-3.447-3.453c-0.864-0.806-2.257-0.975-3.283-0.394c-0.372,0.196-0.677,0.493-0.96,0.798
		c-4.555,4.568-9.109,9.137-13.664,13.704c-0.79,0.798-1.034,2.075-0.581,3.103c0.195,0.52,0.602,0.912,0.993,1.297
		c3.439,3.454,6.887,6.899,10.326,10.353c1.108,1.102,2.196,2.218,3.311,3.312c0.817,0.79,2.129,0.986,3.148,0.494
		c0.69-0.306,1.143-0.934,1.677-1.44c4.217-4.229,8.44-8.454,12.65-12.689C185.07,19.402,185.36,19.146,185.577,18.828"/>
	<path fill="#FFFFFF" d="M199.646,15.854c-0.305-0.554-0.812-0.945-1.237-1.397c-4.116-4.129-8.23-8.258-12.353-12.38
		c-0.338-0.338-0.662-0.69-1.021-1.009c-0.865-0.763-2.21-0.885-3.21-0.317c-0.514,0.271-0.878,0.744-1.291,1.143
		c-4.203,4.225-8.42,8.435-12.617,12.656c-0.432,0.447-0.938,0.845-1.209,1.42c-0.533,1.033-0.33,2.385,0.474,3.223
		c1.169,1.177,2.331,2.352,3.514,3.516c0.277-0.197,0.487-0.488,0.743-0.717c0.73-0.73,1.474-1.46,2.196-2.197
		c0.345-0.384,0.75-0.715,1.082-1.115c-0.453-0.493-0.96-0.932-1.399-1.432c0.324-0.413,0.736-0.75,1.095-1.136
		c2.913-2.919,5.825-5.846,8.737-8.758c0.075-0.074,0.136,0.033,0.189,0.074c2.858,2.865,5.71,5.731,8.568,8.596
		c0.385,0.419,0.825,0.784,1.183,1.224c-0.574,0.629-1.209,1.203-1.798,1.824c-1.682,1.696-3.371,3.387-5.061,5.074
		c-1.014,1.008-2.007,2.034-3.034,3.028c-0.446-0.453-0.898-0.906-1.352-1.358c-0.162-0.136-0.284,0.155-0.405,0.229
		c-1.23,1.244-2.46,2.487-3.703,3.717c0.162,0.202,0.357,0.378,0.54,0.568c0.946,0.945,1.893,1.892,2.839,2.837
		c0.223,0.23,0.479,0.433,0.764,0.588c0.973,0.521,2.257,0.399,3.108-0.303c0.297-0.25,0.547-0.535,0.824-0.805
		c2.703-2.703,5.399-5.413,8.103-8.115c1.777-1.806,3.581-3.582,5.358-5.387C200.084,18.273,200.228,16.882,199.646,15.854"/>
	<path fill="#FFFFFF" d="M31.889,3.326c-1.832-0.021-3.655-0.007-5.486-0.007c-0.008,7.798,0,15.59-0.008,23.388
		c0.015,1.122-0.02,2.236,0.021,3.358c1.818-0.013,3.636-0.007,5.453,0c0.021-0.148,0.028-0.303,0.028-0.452
		C31.889,20.849,31.902,12.084,31.889,3.326"/>
	<path fill="#FFFFFF" d="M124.691,28.059c-0.007-8.244,0.006-16.495-0.007-24.738c-1.832-0.008-3.656-0.008-5.487,0
		c0.007,8.92,0,17.833,0.007,26.745c1.824-0.014,3.642-0.014,5.466,0C124.718,29.396,124.678,28.728,124.691,28.059"/>
	<path fill="#FFFFFF" d="M133.273,28.262c-0.007-8.312,0.007-16.631-0.007-24.941c-1.825,0-3.649-0.021-5.48,0.013
		c0.013,8.907,0.007,17.82,0.007,26.733c1.817-0.008,3.642-0.015,5.459,0C133.299,29.464,133.26,28.864,133.273,28.262"/>
	<path fill="#FFFFFF" d="M112.865,3.569c-0.905,0.143-1.736,0.696-2.243,1.459c-0.669,0.96-0.731,2.298-0.176,3.325
		c0.554,1.068,1.723,1.805,2.933,1.784c1.257,0.007,2.466-0.804,2.979-1.946c0.534-1.115,0.332-2.514-0.466-3.453
		C115.176,3.853,113.994,3.394,112.865,3.569"/>
	<path fill="#FFFFFF" d="M84.632,20.896c1.879-2.595,3.764-5.176,5.644-7.771c0.316-0.459,0.674-0.893,0.965-1.372
		c-1.607-0.027-3.215-0.006-4.824-0.013c-0.514,0.013-1.034-0.028-1.547,0.02c-0.684,0.952-1.318,1.933-1.987,2.892
		c-0.872,1.271-1.737,2.549-2.608,3.818c-0.291,0.405-0.541,0.845-0.871,1.23c-0.008-5.096,0.012-10.185-0.008-15.279h-5.473
		c-0.028,3.622,0.006,7.245-0.008,10.867c0,3.803,0,7.614-0.006,11.42c0.033,1.122-0.027,2.235,0.02,3.357
		c1.818-0.014,3.636-0.014,5.454,0c0.047-0.621,0.006-1.25,0.021-1.872c0-2.054,0-4.114,0.006-6.169
		c0.358,0.412,0.648,0.886,0.979,1.317c1.608,2.243,3.237,4.474,4.839,6.717c2.068,0,4.129-0.007,6.197,0
		c-0.189-0.371-0.487-0.676-0.717-1.014C88.68,26.33,86.646,23.62,84.632,20.896"/>
	<path fill="#FFFFFF" d="M108.25,4.421c-5.177,0.007-10.354-0.007-15.529,0.007c0.014,1.142,0,2.284,0.008,3.427
		c0,7.398,0.006,14.805-0.008,22.212c1.953-0.007,3.899-0.015,5.846,0c0.054-1.075,0-2.149,0.02-3.225c0-2.066,0-4.135,0.007-6.195
		c3.156,0,6.312,0.006,9.468-0.007c0.014-1.88,0.014-3.758,0-5.637c-3.156-0.014-6.312-0.007-9.468-0.007
		c-0.013-1.641-0.007-3.284-0.007-4.926c3.217-0.021,6.44-0.006,9.664-0.006c0.014-0.169,0.014-0.346,0.014-0.521
		C108.257,7.833,108.276,6.123,108.25,4.421"/>
	<path fill="#FFFFFF" d="M50.6,14.004c-1.959-1.96-4.797-2.968-7.547-2.75c-0.648,0.053-1.291,0.141-1.92,0.316
		c-2.324,0.621-4.392,2.162-5.642,4.217c-1.479,2.386-1.798,5.419-0.974,8.082c0.729,2.372,2.433,4.427,4.636,5.575
		c1.798,0.959,3.899,1.312,5.913,1.04c2.629-0.324,5.109-1.797,6.623-3.979c1.188-1.677,1.789-3.758,1.742-5.812
		C53.405,18.214,52.378,15.746,50.6,14.004 M47.242,23.409c-0.628,0.975-1.709,1.615-2.852,1.765
		c-0.744,0.081-1.514,0.033-2.217-0.243c-1.054-0.378-1.906-1.244-2.305-2.292c-0.371-0.973-0.412-2.074-0.128-3.081
		c0.229-0.858,0.75-1.643,1.466-2.169c0.582-0.425,1.278-0.696,1.994-0.771c1.088-0.129,2.236,0.115,3.115,0.784
		c0.865,0.635,1.398,1.635,1.574,2.684C48.061,21.221,47.877,22.443,47.242,23.409"/>
	<path fill="#FFFFFF" d="M61.893,17.389c1.107-0.776,2.595-0.926,3.872-0.5c0.892,0.297,1.67,0.952,2.082,1.804
		c0.182-0.08,0.358-0.183,0.532-0.289c1.414-0.825,2.832-1.65,4.252-2.468c-0.021-0.061-0.049-0.122-0.068-0.176
		c-1.047-1.791-2.75-3.176-4.684-3.898c-2.709-1.027-5.871-0.805-8.398,0.614c-2.082,1.162-3.663,3.169-4.345,5.446
		c-0.366,1.224-0.5,2.515-0.399,3.784c0.156,2.189,1.055,4.332,2.574,5.92c1.602,1.71,3.866,2.73,6.189,2.907
		c1.873,0.169,3.791-0.204,5.461-1.076c1.535-0.824,2.865-2.067,3.67-3.622c-1.508-0.884-3.034-1.743-4.549-2.621
		c-0.08-0.027-0.209-0.156-0.263-0.027c-0.243,0.433-0.548,0.838-0.946,1.142c-1.006,0.771-2.365,0.974-3.582,0.704
		c-1.006-0.23-1.918-0.853-2.453-1.737c-0.594-0.946-0.736-2.115-0.58-3.21C60.42,19.017,61,18.003,61.893,17.389"/>
	<path fill="#FFFFFF" d="M149.174,21.051c-0.736-0.845-1.743-1.404-2.784-1.804c-1.264-0.5-2.615-0.73-3.899-1.169
		c-0.392-0.149-0.845-0.318-1.047-0.716c-0.196-0.447,0.095-0.96,0.526-1.123c0.798-0.303,1.764-0.209,2.453,0.305
		c0.399,0.297,0.688,0.696,0.926,1.128c0.669-0.316,1.298-0.702,1.953-1.04c0.905-0.5,1.831-0.967,2.724-1.479
		c-1.027-1.853-2.886-3.19-4.934-3.677c-1.493-0.352-3.061-0.323-4.548,0.027c-1.236,0.312-2.426,0.899-3.311,1.824
		c-0.987,1.014-1.501,2.447-1.48,3.852c-0.033,1.129,0.291,2.291,1.014,3.17c0.838,1.04,2.075,1.655,3.304,2.096
		c1.17,0.425,2.399,0.682,3.576,1.101c0.371,0.155,0.783,0.318,1.006,0.676c0.196,0.378,0.021,0.846-0.311,1.081
		c-0.5,0.331-1.121,0.353-1.703,0.353c-0.804-0.015-1.635-0.271-2.202-0.866c-0.345-0.331-0.562-0.77-0.751-1.203
		c-0.04-0.115-0.162-0.007-0.223,0.014c-1.486,0.858-2.979,1.703-4.475,2.562c-0.101,0.04-0.019,0.149,0,0.216
		c0.589,1.19,1.508,2.217,2.637,2.912c1.183,0.731,2.562,1.116,3.939,1.224c0.608,0.04,1.217,0.108,1.818,0.04
		c1.392-0.066,2.804-0.356,4.034-1.025c0.898-0.475,1.689-1.169,2.21-2.056c0.628-1.054,0.818-2.323,0.709-3.541
		C150.255,22.883,149.87,21.849,149.174,21.051"/>
	<path fill="#FFFFFF" d="M113.717,11.739c-1.034,0.015-2.062-0.021-3.095,0.021c0.013,6.101,0,12.204,0.006,18.305
		c1.832-0.014,3.663-0.007,5.494-0.007c-0.014-2.689,0-5.385-0.007-8.082c0.007-3.405-0.007-6.804,0.014-10.211
		C115.325,11.713,114.521,11.761,113.717,11.739"/>
</g>
</svg>
